<?xml version="1.0" standalone="no"?>
<!DOCTYPE svg PUBLIC "-//W3C//DTD SVG 20010904//EN"
 "http://www.w3.org/TR/2001/REC-SVG-20010904/DTD/svg10.dtd">
<svg version="1.0" xmlns="http://www.w3.org/2000/svg"
 width="408.000000pt" height="612.000000pt" viewBox="0 0 408.000000 612.000000"
 preserveAspectRatio="xMidYMid meet">

<g transform="translate(0.000000,612.000000) scale(0.100000,-0.100000)"
fill="#000000" stroke="none">
<path d="M1955 5375 c-27 -7 -44 -13 -37 -14 21 -2 13 -20 -10 -25 -13 -3 -55
-10 -95 -16 -60 -10 -79 -18 -115 -49 -24 -20 -63 -47 -86 -59 -24 -13 -55
-36 -69 -53 -14 -16 -41 -36 -59 -44 -38 -15 -43 -29 -17 -44 15 -8 15 -11 4
-25 -13 -15 -15 -15 -32 0 -16 15 -19 14 -34 -9 -13 -21 -14 -33 -6 -63 8 -30
7 -41 -7 -60 -9 -13 -20 -24 -24 -24 -11 0 3 34 20 47 13 11 13 13 -2 19 -23
9 -36 -11 -36 -53 0 -35 -18 -83 -31 -83 -5 0 -18 -18 -29 -39 -10 -22 -23
-41 -27 -43 -12 -5 -43 -64 -43 -82 0 -9 -6 -27 -14 -39 -23 -36 -41 -195 -30
-258 l10 -54 8 60 c6 45 27 99 83 213 86 172 133 229 226 275 99 48 100 48
153 20 38 -19 65 -25 120 -26 40 -1 78 3 85 9 31 24 47 22 85 -13 36 -32 42
-34 84 -28 25 4 49 11 55 16 5 5 22 9 37 9 32 0 98 25 98 37 0 4 12 14 27 21
24 11 34 9 91 -18 35 -16 74 -30 85 -30 11 0 28 -7 37 -15 10 -9 31 -17 47
-19 67 -9 124 -28 178 -61 22 -13 57 -33 77 -44 21 -12 43 -31 49 -43 7 -13
13 -80 14 -165 3 -144 10 -173 42 -173 7 0 16 -7 19 -15 4 -8 12 -15 20 -15 8
0 14 -8 13 -17 0 -11 -3 -13 -6 -5 -10 26 -21 0 -12 -31 5 -17 9 -49 9 -70 0
-24 5 -40 15 -43 10 -4 13 -14 8 -32 -4 -17 -2 -23 5 -18 19 12 27 -82 25
-292 -2 -144 -6 -208 -14 -219 -7 -8 -12 -34 -10 -57 4 -85 -94 -338 -155
-401 -22 -24 -51 -58 -63 -78 -33 -53 -160 -167 -179 -160 -9 4 -13 2 -8 -5 9
-15 -5 -21 -30 -12 -12 5 -24 20 -26 34 -5 23 -2 26 14 20 17 -5 18 -4 6 15
-7 12 -16 21 -20 21 -5 0 -8 5 -8 11 0 5 5 7 10 4 12 -8 13 0 1 23 -5 9 -12
25 -15 34 -3 11 -12 15 -25 11 -16 -4 -20 -12 -17 -37 2 -18 10 -32 19 -34 9
-2 14 -9 10 -18 -4 -12 -7 -12 -18 3 -10 14 -16 15 -28 5 -22 -18 -19 -62 4
-62 11 0 19 -4 19 -10 0 -5 -4 -10 -10 -10 -5 0 -10 -9 -10 -20 0 -11 -4 -20
-10 -20 -5 0 -10 -9 -10 -20 0 -15 -7 -20 -26 -20 -14 0 -23 -4 -19 -10 3 -5
0 -10 -8 -10 -8 0 -25 -8 -38 -18 -13 -10 -31 -17 -39 -17 -8 1 -25 -4 -38
-12 -15 -9 -28 -11 -40 -4 -28 15 -88 16 -105 3 -11 -9 -17 -10 -22 -2 -4 6
-13 9 -21 6 -8 -3 -14 -2 -14 3 0 12 -83 51 -100 47 -24 -5 -54 -18 -69 -30
-7 -6 -39 -12 -71 -13 -76 -3 -138 -31 -134 -60 2 -11 -2 -23 -10 -26 -26 -10
-76 33 -147 130 -40 54 -89 117 -108 139 -20 23 -44 54 -55 69 -14 21 -20 24
-27 14 -6 -10 -8 -8 -7 6 1 17 -59 155 -67 155 -2 0 1 -15 6 -32 5 -18 7 -60
3 -92 -13 -121 -3 -177 45 -250 l25 -38 -34 -31 c-91 -79 -169 -156 -199 -194
-18 -24 -37 -43 -43 -43 -6 0 -18 -10 -28 -23 -15 -19 -29 -23 -79 -25 -34 -1
-61 1 -61 6 0 4 13 29 30 55 37 59 70 123 70 137 0 11 -75 -23 -85 -40 -9 -15
-46 -12 -66 6 -10 9 -23 13 -29 9 -7 -4 -2 -15 14 -30 23 -21 24 -26 14 -59
-11 -33 -13 -35 -45 -30 -32 5 -34 4 -24 -14 6 -11 15 -22 20 -24 14 -5 16
-100 3 -125 -15 -27 -15 -43 -1 -43 5 0 7 5 4 10 -3 6 -1 10 4 10 6 0 11 6 11
13 1 17 50 71 58 63 3 -4 1 -15 -6 -24 -6 -9 -23 -38 -37 -64 -27 -52 -52 -75
-43 -40 6 20 5 20 -38 4 -24 -9 -47 -24 -50 -34 -3 -10 -17 -32 -31 -48 -31
-37 -25 -60 13 -52 32 6 29 0 -28 -69 -21 -25 -38 -48 -38 -52 0 -3 -12 -32
-26 -64 -32 -70 -36 -116 -11 -121 26 -5 46 15 53 54 4 24 12 34 24 34 18 0
91 83 164 189 47 66 351 373 416 420 37 27 52 32 90 29 l45 -2 11 44 c7 25 10
55 7 68 -7 32 11 27 43 -11 50 -59 66 -125 27 -110 -13 5 -15 2 -9 -18 4 -13
11 -58 15 -99 6 -60 18 -96 58 -182 28 -58 63 -145 78 -193 14 -47 35 -94 45
-103 11 -9 37 -33 58 -53 49 -48 113 -82 82 -44 -11 13 -8 15 15 15 25 0 27 3
23 30 -3 22 1 35 16 48 20 16 20 16 7 -1 -12 -15 -12 -17 3 -11 21 8 20 20 -1
33 -17 10 -16 12 7 31 14 11 31 20 38 20 7 0 10 5 7 10 -7 11 18 14 29 3 13
-13 41 -9 47 7 3 8 12 15 20 16 8 0 25 2 38 2 21 2 22 4 10 19 -13 15 -12 15
10 4 13 -7 21 -8 17 -2 -4 5 3 15 14 21 15 8 20 8 20 -1 0 -7 8 -3 18 9 10 11
36 24 57 28 36 6 128 61 179 106 11 10 23 18 27 18 5 0 25 11 45 25 20 14 45
25 55 25 11 0 19 5 19 10 0 6 6 10 14 10 7 0 28 10 47 23 46 31 72 41 66 25
-2 -7 -10 -12 -17 -10 -6 1 -10 -3 -7 -10 2 -7 9 -12 15 -11 12 3 6 -23 -10
-44 -5 -6 -11 -26 -13 -43 -2 -17 -10 -36 -17 -43 -30 -29 -71 -56 -78 -52 -4
2 -13 -8 -21 -23 -8 -15 -16 -29 -19 -32 -15 -15 -29 -50 -20 -50 5 0 10 -7
10 -15 0 -17 25 -20 35 -5 3 5 12 10 18 9 9 0 9 -2 0 -6 -7 -2 -13 -13 -13
-23 0 -11 -11 -30 -23 -43 -13 -12 -26 -35 -29 -50 -4 -22 -2 -27 14 -27 11 0
26 -7 35 -15 13 -14 17 -13 32 7 9 13 26 41 36 63 26 51 70 127 110 190 79
121 271 456 297 515 43 102 38 139 -24 171 -26 14 -38 26 -36 37 4 20 22 18
84 -8 74 -32 94 -107 59 -220 -20 -66 -179 -393 -236 -487 -23 -37 -80 -142
-126 -233 -47 -91 -94 -174 -104 -184 -10 -11 -42 -31 -71 -45 -43 -21 -54
-31 -56 -54 l-3 -28 32 16 32 17 -6 -28 c-3 -16 -63 -139 -133 -274 -183 -352
-181 -348 -209 -381 -14 -17 -25 -35 -25 -40 0 -10 -126 -203 -193 -294 -24
-33 -68 -100 -98 -148 -30 -48 -71 -114 -91 -147 -21 -33 -40 -70 -43 -83 -4
-13 -16 -36 -28 -51 l-22 -27 -22 29 c-21 28 -128 215 -185 322 -16 30 -43 78
-60 105 -69 112 -119 226 -120 275 -1 46 3 57 47 116 6 9 5 28 -2 55 -6 23 -9
48 -6 55 3 7 26 21 51 30 155 57 254 106 240 119 -3 4 -24 1 -46 -5 -30 -8
-47 -7 -66 2 -28 12 -27 12 -118 -38 -16 -8 -28 -19 -28 -24 0 -25 -107 -67
-190 -75 -9 0 -21 -4 -28 -9 -6 -4 -12 -4 -12 1 0 4 -4 3 -8 -2 -16 -22 -59
-42 -107 -49 -31 -5 -63 -18 -85 -35 -39 -31 -109 -60 -127 -54 -6 2 -14 -1
-18 -6 -13 -22 -85 -9 -85 15 0 8 -7 14 -15 14 -23 0 -18 14 20 56 29 31 32
40 20 46 -14 9 -90 -26 -126 -58 -8 -8 -29 -14 -45 -14 -18 0 -43 -11 -64 -29
l-35 -29 40 -10 c44 -11 116 -7 144 7 18 10 45 0 39 -15 -1 -5 10 -10 25 -12
35 -4 63 -31 59 -55 -2 -9 -36 -38 -75 -63 -40 -26 -85 -58 -101 -71 -33 -27
-188 -103 -211 -103 -7 0 -17 -4 -20 -10 -3 -5 -15 -10 -26 -10 -10 0 -19 -4
-19 -9 0 -5 -12 -13 -27 -19 -25 -9 -38 -11 -95 -15 -10 -1 -18 -4 -18 -8 0
-4 -29 -20 -65 -35 l-65 -28 0 -253 0 -253 2040 0 2040 0 0 1049 0 1048 -67
26 c-193 73 -305 119 -369 151 -77 38 -202 86 -226 86 -13 0 -50 43 -216 250
-16 19 -46 68 -68 109 -50 95 -106 144 -182 162 -50 12 -57 17 -59 39 -1 14
-5 42 -9 63 -4 22 0 81 11 146 l17 109 52 -5 c38 -3 56 -1 71 11 19 16 19 16
-7 5 -24 -10 -31 -9 -48 6 -37 33 -51 135 -15 105 11 -10 14 -4 12 31 -2 36 1
44 18 47 62 10 65 12 100 87 19 41 35 79 35 85 0 21 -49 83 -75 94 -5 2 0 11
13 21 12 9 22 23 22 31 0 30 29 12 45 -28 28 -70 30 -126 5 -190 -21 -56 -76
-118 -104 -118 -18 0 -29 -26 -31 -68 -2 -35 20 -56 35 -32 4 7 19 13 33 13
19 0 29 7 37 28 7 15 12 32 12 36 0 4 9 20 19 35 10 14 19 31 19 37 0 7 6 22
14 34 33 50 68 270 53 329 -6 24 -9 25 -58 17 -28 -4 -57 -13 -65 -20 -20 -16
-28 -5 -15 19 15 29 14 32 -14 32 -30 0 -33 25 -9 72 75 145 88 510 25 671 -6
16 -9 33 -5 38 3 5 -6 34 -20 65 -14 31 -26 61 -26 66 0 5 -8 28 -19 51 -10
23 -21 49 -25 57 -18 41 -48 76 -126 146 -47 42 -89 84 -94 93 -14 25 -88 91
-102 91 -7 0 -53 20 -101 45 -48 25 -94 45 -102 45 -8 0 -34 9 -58 21 -49 24
-183 39 -278 31 -40 -3 -65 -1 -69 7 -9 14 -47 13 -111 -4z m1052 -1857 c-3
-8 -6 -5 -6 6 -1 11 2 17 5 13 3 -3 4 -12 1 -19z m-1677 -577 c24 -48 10 -65
-26 -30 -16 17 -22 31 -18 47 9 32 21 27 44 -17z m1097 -113 c-3 -8 -6 -5 -6
6 -1 11 2 17 5 13 3 -3 4 -12 1 -19z m359 -144 c-4 -9 -9 -15 -11 -12 -3 3 -3
13 1 22 4 9 9 15 11 12 3 -3 3 -13 -1 -22z m-1835 -268 c-11 -13 -71 -40 -71
-31 0 5 64 45 74 45 5 0 3 -6 -3 -14z m834 -266 c0 -18 -16 -22 -35 -10 -13 9
-13 11 0 20 19 12 35 8 35 -10z m75 -46 c0 -2 -9 0 -20 6 -11 6 -20 13 -20 16
0 2 9 0 20 -6 11 -6 20 -13 20 -16z m-1184 -56 c-30 -70 -66 -127 -66 -107 0
30 33 114 53 137 33 36 38 25 13 -30z m1214 42 c0 -5 -2 -10 -4 -10 -3 0 -8 5
-11 10 -3 6 -1 10 4 10 6 0 11 -4 11 -10z m20 -60 c0 -5 -2 -10 -4 -10 -3 0
-8 5 -11 10 -3 6 -1 10 4 10 6 0 11 -4 11 -10z m-1260 -1280 c0 -16 -4 -31 -9
-35 -6 -3 -9 11 -8 34 1 45 17 46 17 1z m-50 -28 c0 -16 -7 -52 -16 -82 -9
-29 -17 -61 -19 -70 -2 -8 -19 -60 -40 -115 -20 -55 -38 -106 -40 -112 -3 -7
-12 -13 -22 -13 -23 -1 -53 -23 -53 -40 0 -7 -3 -11 -6 -7 -4 3 -20 -1 -37
-10 -38 -19 -130 -12 -157 12 -10 9 -21 36 -25 58 -4 23 -12 56 -20 72 -26 60
-27 73 -6 84 30 17 41 13 41 -13 0 -13 9 -35 20 -49 11 -14 20 -30 20 -36 0
-32 111 -45 135 -16 6 6 20 17 33 24 12 6 22 18 22 26 0 10 -14 5 -49 -16 -49
-31 -49 -31 -86 -14 -34 17 -71 66 -58 78 3 3 22 -8 43 -24 29 -24 44 -29 62
-24 29 9 78 54 78 72 0 7 7 13 16 13 12 0 15 -6 10 -26 -5 -18 -3 -25 5 -22
26 9 58 89 65 165 6 52 12 70 33 89 34 32 51 30 51 -4z m-114 -99 c-7 -51 -36
-90 -70 -95 -12 -2 -27 -16 -35 -33 -8 -16 -19 -33 -24 -37 -16 -10 -38 3 -48
28 -5 14 -17 24 -28 24 -10 0 -24 7 -31 15 -10 13 -7 17 23 30 44 18 64 19 70
3 5 -15 47 28 47 48 0 7 8 15 19 19 10 3 26 14 36 25 33 36 49 26 41 -27z
m-246 -383 l25 -8 -25 -1 c-14 0 -32 4 -40 9 -13 9 -13 10 0 9 8 -1 26 -5 40
-9z"/>
<path d="M378 366 c-21 -15 -24 -42 -6 -48 7 -3 23 -2 36 0 18 4 22 10 20 31
-3 29 -25 37 -50 17z"/>
<path d="M248 335 c-3 -14 -1 -28 3 -31 12 -7 68 -9 74 -2 11 10 -6 33 -32 46
-37 17 -40 16 -45 -13z"/>
<path d="M1397 4311 c-39 -43 -67 -91 -67 -115 0 -11 9 -13 39 -9 40 6 86 -11
75 -28 -3 -5 -14 -7 -23 -4 -19 6 -65 -25 -81 -55 -5 -10 -12 -36 -15 -59 -3
-23 -12 -55 -20 -71 -8 -16 -15 -31 -15 -35 0 -3 26 -5 58 -5 48 0 62 -4 80
-23 27 -29 27 -36 0 -46 -16 -6 -4 -11 54 -20 57 -10 80 -11 96 -2 12 7 22 9
22 6 0 -3 13 1 30 10 16 8 53 15 82 15 29 0 69 3 89 6 34 6 38 10 55 61 10 30
26 59 34 63 13 7 91 14 126 11 6 -1 14 -19 18 -42 7 -46 49 -95 87 -103 13 -2
79 -16 145 -30 148 -32 223 -36 236 -12 6 11 23 16 51 17 92 1 135 14 179 55
39 36 43 44 40 79 -2 23 -11 46 -24 56 -11 10 -17 23 -13 29 13 21 -6 46 -55
75 -28 16 -57 39 -65 51 -27 41 -81 57 -205 61 -72 2 -132 -2 -160 -10 -25 -7
-65 -12 -90 -11 -53 2 -73 -7 -122 -53 -32 -31 -43 -36 -95 -38 -57 -3 -59 -2
-86 35 -15 21 -27 42 -27 47 0 10 -64 43 -83 43 -7 0 -46 13 -87 29 -94 37
-176 61 -205 61 -14 0 -37 -16 -58 -39z m167 -237 c30 -12 16 -24 -27 -24 -23
0 -60 -9 -82 -20 -47 -24 -62 -25 -45 -4 30 35 117 62 154 48z m-76 -122 c3
-16 -1 -20 -12 -16 -19 7 -22 48 -3 42 6 -3 13 -14 15 -26z m807 -22 c3 -5 1
-10 -4 -10 -6 0 -11 5 -11 10 0 6 2 10 4 10 3 0 8 -4 11 -10z m-670 -41 c-18
-5 -33 -5 -39 1 -7 7 4 10 30 9 39 -1 39 -1 9 -10z"/>
<path d="M1060 3828 c0 -111 13 -142 30 -77 7 24 18 59 26 77 13 30 12 37 -3
63 -10 16 -25 29 -35 29 -16 0 -18 -10 -18 -92z"/>
<path d="M1118 3726 c-5 -27 -8 -61 -8 -75 1 -22 2 -24 11 -8 5 9 9 43 7 75
l-3 57 -7 -49z"/>
<path d="M1101 3578 c-1 -23 29 -98 39 -98 11 0 0 41 -15 60 -7 8 -15 24 -18
35 -4 16 -5 16 -6 3z"/>
<path d="M2195 3552 c-19 -22 -22 -23 -70 -11 -28 6 -56 16 -63 22 -8 6 -27 6
-55 -1 -78 -20 -87 -20 -157 -6 -63 13 -74 13 -105 -1 -53 -26 -56 -34 -46
-111 8 -56 7 -71 -4 -84 -31 -34 -15 -43 57 -31 4 0 10 10 13 21 5 15 11 18
22 11 9 -4 24 -6 35 -3 10 2 26 -2 36 -11 33 -30 74 -40 114 -26 32 10 44 9
82 -5 90 -34 77 -43 -62 -41 -70 0 -133 4 -139 8 -7 5 -36 1 -65 -8 -65 -19
-78 -19 -78 0 0 8 -7 15 -15 15 -8 0 -15 -6 -15 -12 0 -8 -3 -9 -8 -3 -4 6
-19 16 -34 24 -22 11 -32 12 -58 1 -77 -32 -98 -76 -68 -147 6 -15 12 -31 12
-35 1 -4 6 -12 12 -18 9 -9 22 -6 52 9 22 11 60 23 84 27 23 4 67 14 95 24 41
13 65 15 110 8 32 -4 78 -6 103 -2 31 3 72 -2 125 -15 43 -12 98 -21 122 -21
24 0 64 -5 89 -11 41 -11 45 -10 64 12 11 13 25 42 31 63 9 33 8 44 -7 72 -10
19 -24 34 -30 34 -7 0 -14 7 -17 14 -8 19 -75 37 -118 32 -46 -5 -59 2 -59 31
0 13 -5 33 -10 43 -8 15 -6 24 9 39 10 10 22 33 26 50 4 17 13 31 21 31 17 0
18 8 2 24 -10 10 -17 7 -33 -12z"/>
<path d="M2600 3091 c0 -25 6 -27 13 -6 4 8 2 17 -3 20 -6 4 -10 -3 -10 -14z"/>
<path d="M1853 3063 c-7 -3 -13 -11 -13 -18 0 -7 -20 -18 -45 -24 -49 -12 -67
-35 -54 -68 11 -30 57 -38 197 -37 l113 2 34 38 c19 22 34 42 35 45 0 11 -127
57 -160 57 -8 0 -33 2 -55 5 -22 2 -46 2 -52 0z"/>
<path d="M1495 2980 c4 -6 1 -17 -5 -25 -7 -9 -8 -15 -2 -15 10 0 22 23 22 41
0 5 -5 9 -11 9 -5 0 -7 -5 -4 -10z"/>
<path d="M1521 2944 c0 -11 3 -14 6 -6 3 7 2 16 -1 19 -3 4 -6 -2 -5 -13z"/>
<path d="M1306 2375 c-15 -8 -44 -15 -62 -15 -27 0 -37 -5 -46 -25 -6 -14 -17
-25 -25 -25 -7 0 -13 -8 -13 -18 0 -27 -9 -32 -36 -22 -29 11 -29 9 -5 -38 47
-91 47 -87 12 -131 -18 -23 -36 -41 -41 -41 -5 0 -18 -16 -30 -36 -28 -44 -65
-60 -97 -43 -21 11 -27 9 -58 -21 -41 -40 -45 -60 -11 -60 13 0 29 -6 35 -14
15 -18 -4 -60 -43 -94 -15 -12 -42 -47 -61 -77 -20 -30 -42 -55 -49 -55 -14 0
-59 -63 -62 -86 -1 -6 2 -17 6 -24 7 -11 17 -8 49 13 23 15 41 34 41 42 0 20
124 106 168 116 117 26 210 -129 129 -214 -12 -13 -60 -49 -107 -79 -47 -31
-100 -70 -119 -86 -30 -27 -33 -34 -28 -68 4 -20 11 -42 17 -48 7 -7 69 5 203
38 105 27 197 53 203 57 6 5 13 53 16 110 3 55 10 105 16 111 6 6 37 15 68 19
30 4 63 14 72 22 19 16 52 19 52 4 0 -5 11 -6 25 -3 16 4 24 2 23 -5 -2 -6 3
-14 10 -16 7 -3 12 4 12 15 0 11 -6 22 -12 25 -10 4 -10 7 0 18 10 11 12 10
12 -4 0 -9 5 -17 11 -17 6 0 9 -6 6 -14 -3 -8 1 -17 9 -20 8 -3 14 0 14 6 0 7
5 6 15 -2 9 -7 18 -10 21 -7 8 7 -106 127 -121 127 -16 0 -65 71 -65 93 0 13
6 15 32 10 l32 -6 -21 29 c-12 16 -31 38 -43 49 -13 11 -28 33 -35 48 l-12 28
-51 -53 c-28 -29 -53 -50 -56 -47 -3 2 -6 112 -7 243 -1 221 0 239 18 260 42
48 39 57 -11 31z m228 -715 c5 -5 5 -17 1 -27 -5 -10 -7 -22 -6 -26 1 -5 -4
-5 -11 -1 -7 5 -24 7 -37 5 -14 -1 -21 1 -17 7 3 6 2 13 -4 17 -7 4 -7 13 1
26 8 16 17 19 37 14 15 -3 31 -10 36 -15z"/>
<path d="M450 2275 c-25 -13 -67 -29 -95 -35 -27 -7 -59 -18 -70 -25 -11 -7
-46 -20 -78 -29 -67 -20 -148 -85 -140 -114 2 -9 -4 -35 -14 -57 -17 -39 -17
-39 -21 -13 -2 15 2 37 8 48 15 27 8 35 -19 20 -20 -10 -21 -18 -21 -211 l0
-200 43 29 c138 97 263 235 332 371 13 26 42 75 65 110 39 59 67 118 59 126
-2 2 -24 -7 -49 -20z"/>
<path d="M582 2248 c2 -6 10 -14 16 -16 7 -2 10 2 6 12 -7 18 -28 22 -22 4z"/>
<path d="M2210 1530 c8 -5 24 -10 35 -10 11 0 27 5 35 10 11 7 1 10 -35 10
-36 0 -46 -3 -35 -10z"/>
<path d="M2045 1521 c-3 -5 -1 -12 5 -16 5 -3 10 1 10 9 0 18 -6 21 -15 7z"/>
<path d="M1853 1493 c9 -2 25 -2 35 0 9 3 1 5 -18 5 -19 0 -27 -2 -17 -5z"/>
<path d="M1865 760 c-19 -8 -19 -9 2 -9 12 -1 25 4 28 9 7 12 -2 12 -30 0z"/>
</g>
</svg>
